<mxfile host="app.diagrams.net" agent="Mozilla/5.0 (Windows NT 10.0; Win64; x64) AppleWebKit/537.36 (KHTML, like Gecko) Chrome/136.0.0.0 Safari/537.36" version="27.0.9">
  <diagram name="Страница — 1" id="JjM-Fjerjo5G0nOOW1aQ">
    <mxGraphModel dx="1895" dy="1036" grid="1" gridSize="10" guides="1" tooltips="1" connect="1" arrows="1" fold="1" page="1" pageScale="1" pageWidth="827" pageHeight="1169" math="0" shadow="0">
      <root>
        <mxCell id="0" />
        <mxCell id="1" parent="0" />
        <mxCell id="x8CmGXhVg_EeQ_MlbedM-1" value="Генетический алгоритм" style="swimlane;fontStyle=1;align=center;verticalAlign=top;childLayout=stackLayout;horizontal=1;startSize=26;horizontalStack=0;resizeParent=1;resizeParentMax=0;resizeLast=0;collapsible=1;marginBottom=0;whiteSpace=wrap;html=1;" vertex="1" parent="1">
          <mxGeometry x="110" y="100" width="160" height="500" as="geometry" />
        </mxCell>
        <mxCell id="x8CmGXhVg_EeQ_MlbedM-2" value="&lt;div&gt;+id int;&lt;/div&gt;&lt;div&gt;+blade1_corr int;&lt;/div&gt;&lt;div&gt;+blade2_corr int;&lt;/div&gt;&lt;div&gt;+blade3_corr int;&lt;/div&gt;&lt;div&gt;+blade1_md int;&lt;/div&gt;&lt;div&gt;+blade2_md int;&lt;/div&gt;&lt;div&gt;+blade3_md int;&lt;/div&gt;&lt;div&gt;+blade1_ice int;&lt;/div&gt;&lt;div&gt;+blade2_ice int;&lt;/div&gt;&lt;div&gt;+blade3_ice int;&lt;/div&gt;&lt;div&gt;+blade1_err int;&lt;/div&gt;&lt;div&gt;+blade2_err int;&lt;/div&gt;&lt;div&gt;+blade3_err int;&lt;/div&gt;&lt;div&gt;+rotor_corr int;&lt;/div&gt;&lt;div&gt;+rotor_md int;&lt;/div&gt;&lt;div&gt;+rotor_ice int;&lt;/div&gt;&lt;div&gt;+gondola_corr int;&lt;/div&gt;&lt;div&gt;+gondola_md int;&lt;/div&gt;&lt;div&gt;+mast_corr int;&lt;/div&gt;&lt;div&gt;+mast_md int;&lt;/div&gt;&lt;div&gt;+generator_cond int;&lt;/div&gt;&lt;div&gt;+sensors_cond int;&lt;/div&gt;&lt;div&gt;+electronics_cond int;&lt;/div&gt;" style="text;strokeColor=none;fillColor=none;align=left;verticalAlign=top;spacingLeft=4;spacingRight=4;overflow=hidden;rotatable=0;points=[[0,0.5],[1,0.5]];portConstraint=eastwest;whiteSpace=wrap;html=1;" vertex="1" parent="x8CmGXhVg_EeQ_MlbedM-1">
          <mxGeometry y="26" width="160" height="344" as="geometry" />
        </mxCell>
        <mxCell id="x8CmGXhVg_EeQ_MlbedM-3" value="" style="line;strokeWidth=1;fillColor=none;align=left;verticalAlign=middle;spacingTop=-1;spacingLeft=3;spacingRight=3;rotatable=0;labelPosition=right;points=[];portConstraint=eastwest;strokeColor=inherit;" vertex="1" parent="x8CmGXhVg_EeQ_MlbedM-1">
          <mxGeometry y="370" width="160" height="8" as="geometry" />
        </mxCell>
        <mxCell id="x8CmGXhVg_EeQ_MlbedM-4" value="+ Создание начальной популяции();&lt;div&gt;+Кроссинговер();&lt;/div&gt;&lt;div&gt;+Мутация();&lt;/div&gt;&lt;div&gt;+Турнирный отбор();&lt;/div&gt;&lt;div&gt;+Fitness-функция();&lt;/div&gt;&lt;div&gt;+Генетический алгоритм()&lt;/div&gt;&lt;div&gt;&lt;br&gt;&lt;/div&gt;" style="text;strokeColor=none;fillColor=none;align=left;verticalAlign=top;spacingLeft=4;spacingRight=4;overflow=hidden;rotatable=0;points=[[0,0.5],[1,0.5]];portConstraint=eastwest;whiteSpace=wrap;html=1;" vertex="1" parent="x8CmGXhVg_EeQ_MlbedM-1">
          <mxGeometry y="378" width="160" height="122" as="geometry" />
        </mxCell>
        <mxCell id="x8CmGXhVg_EeQ_MlbedM-5" value="" style="ellipse;html=1;shape=startState;fillColor=#000000;strokeColor=#ff0000;" vertex="1" parent="1">
          <mxGeometry x="560" y="10" width="30" height="30" as="geometry" />
        </mxCell>
        <mxCell id="x8CmGXhVg_EeQ_MlbedM-6" value="" style="edgeStyle=orthogonalEdgeStyle;html=1;verticalAlign=bottom;endArrow=open;endSize=8;strokeColor=#1A1A1A;rounded=0;" edge="1" source="x8CmGXhVg_EeQ_MlbedM-5" parent="1">
          <mxGeometry relative="1" as="geometry">
            <mxPoint x="575" y="100" as="targetPoint" />
          </mxGeometry>
        </mxCell>
        <mxCell id="x8CmGXhVg_EeQ_MlbedM-33" style="edgeStyle=orthogonalEdgeStyle;rounded=0;orthogonalLoop=1;jettySize=auto;html=1;exitX=0.5;exitY=1;exitDx=0;exitDy=0;entryX=0.5;entryY=0;entryDx=0;entryDy=0;" edge="1" parent="1" source="x8CmGXhVg_EeQ_MlbedM-7" target="x8CmGXhVg_EeQ_MlbedM-20">
          <mxGeometry relative="1" as="geometry" />
        </mxCell>
        <mxCell id="x8CmGXhVg_EeQ_MlbedM-7" value="База данных SQL Server" style="swimlane;fontStyle=0;childLayout=stackLayout;horizontal=1;startSize=26;fillColor=none;horizontalStack=0;resizeParent=1;resizeParentMax=0;resizeLast=0;collapsible=1;marginBottom=0;whiteSpace=wrap;html=1;" vertex="1" parent="1">
          <mxGeometry x="480" y="100" width="190" height="520" as="geometry" />
        </mxCell>
        <mxCell id="x8CmGXhVg_EeQ_MlbedM-16" value="&lt;div style=&quot;box-sizing: border-box; width: 100%; background: rgb(228, 228, 228); padding: 2px;&quot;&gt;check_20_05_2024&lt;/div&gt;&lt;table style=&quot;width:100%;font-size:1em;&quot; cellpadding=&quot;2&quot; cellspacing=&quot;0&quot;&gt;&lt;tbody&gt;&lt;tr&gt;&lt;td&gt;PK&lt;/td&gt;&lt;td&gt;id&lt;/td&gt;&lt;/tr&gt;&lt;tr&gt;&lt;td&gt;&lt;br&gt;&lt;/td&gt;&lt;td&gt;&lt;br&gt;&lt;/td&gt;&lt;/tr&gt;&lt;tr&gt;&lt;td&gt;&lt;/td&gt;&lt;td&gt;b1_corr&lt;br&gt;b2_corr&lt;br&gt;b3_corr&lt;br&gt;b1_md&lt;br&gt;b2_md&lt;br&gt;b3_md&lt;br&gt;b1_ice&lt;br&gt;b2_ice&lt;br&gt;b3_ice&lt;br&gt;b1_err&lt;br&gt;b2_err&lt;br&gt;b3_err&lt;br&gt;r_corr&lt;br&gt;r_md&lt;br&gt;r_ice&lt;br&gt;g_corr&lt;br&gt;g_md&lt;br&gt;m_corr&lt;br&gt;m_md&lt;br&gt;g_c&lt;br&gt;s_c&lt;br&gt;el_c&lt;/td&gt;&lt;/tr&gt;&lt;/tbody&gt;&lt;/table&gt;" style="verticalAlign=top;align=left;overflow=fill;html=1;whiteSpace=wrap;" vertex="1" parent="x8CmGXhVg_EeQ_MlbedM-7">
          <mxGeometry y="26" width="190" height="374" as="geometry" />
        </mxCell>
        <mxCell id="x8CmGXhVg_EeQ_MlbedM-13" value="&lt;div style=&quot;box-sizing: border-box; width: 100%; background: rgb(228, 228, 228); padding: 2px;&quot;&gt;check_20_08_2024&lt;/div&gt;" style="verticalAlign=top;align=left;overflow=fill;html=1;whiteSpace=wrap;" vertex="1" parent="x8CmGXhVg_EeQ_MlbedM-7">
          <mxGeometry y="400" width="190" height="40" as="geometry" />
        </mxCell>
        <mxCell id="x8CmGXhVg_EeQ_MlbedM-14" value="&lt;div style=&quot;box-sizing: border-box; width: 100%; background: rgb(228, 228, 228); padding: 2px;&quot;&gt;check_20_11_2024&lt;/div&gt;" style="verticalAlign=top;align=left;overflow=fill;html=1;whiteSpace=wrap;" vertex="1" parent="x8CmGXhVg_EeQ_MlbedM-7">
          <mxGeometry y="440" width="190" height="40" as="geometry" />
        </mxCell>
        <mxCell id="x8CmGXhVg_EeQ_MlbedM-15" value="&lt;div style=&quot;box-sizing: border-box; width: 100%; background: rgb(228, 228, 228); padding: 2px;&quot;&gt;check_20_02_2025&lt;/div&gt;" style="verticalAlign=top;align=left;overflow=fill;html=1;whiteSpace=wrap;" vertex="1" parent="x8CmGXhVg_EeQ_MlbedM-7">
          <mxGeometry y="480" width="190" height="40" as="geometry" />
        </mxCell>
        <mxCell id="x8CmGXhVg_EeQ_MlbedM-17" style="edgeStyle=orthogonalEdgeStyle;rounded=0;orthogonalLoop=1;jettySize=auto;html=1;entryX=1.02;entryY=0.541;entryDx=0;entryDy=0;entryPerimeter=0;" edge="1" parent="1" source="x8CmGXhVg_EeQ_MlbedM-16" target="x8CmGXhVg_EeQ_MlbedM-2">
          <mxGeometry relative="1" as="geometry" />
        </mxCell>
        <mxCell id="x8CmGXhVg_EeQ_MlbedM-18" style="edgeStyle=orthogonalEdgeStyle;rounded=0;orthogonalLoop=1;jettySize=auto;html=1;exitX=1;exitY=0.5;exitDx=0;exitDy=0;entryX=-0.011;entryY=0.105;entryDx=0;entryDy=0;entryPerimeter=0;" edge="1" parent="1" source="x8CmGXhVg_EeQ_MlbedM-4">
          <mxGeometry relative="1" as="geometry">
            <mxPoint x="477.9100000000001" y="539.27" as="targetPoint" />
          </mxGeometry>
        </mxCell>
        <mxCell id="x8CmGXhVg_EeQ_MlbedM-35" value="" style="edgeStyle=orthogonalEdgeStyle;rounded=0;orthogonalLoop=1;jettySize=auto;html=1;" edge="1" parent="1" source="x8CmGXhVg_EeQ_MlbedM-20" target="x8CmGXhVg_EeQ_MlbedM-34">
          <mxGeometry relative="1" as="geometry" />
        </mxCell>
        <mxCell id="x8CmGXhVg_EeQ_MlbedM-20" value="Нейронная сеть" style="swimlane;fontStyle=1;align=center;verticalAlign=top;childLayout=stackLayout;horizontal=1;startSize=34;horizontalStack=0;resizeParent=1;resizeParentMax=0;resizeLast=0;collapsible=1;marginBottom=0;whiteSpace=wrap;html=1;" vertex="1" parent="1">
          <mxGeometry x="334" y="690" width="186" height="220" as="geometry" />
        </mxCell>
        <mxCell id="x8CmGXhVg_EeQ_MlbedM-25" value="+Загрузка данных()" style="text;strokeColor=none;fillColor=none;align=left;verticalAlign=top;spacingLeft=4;spacingRight=4;overflow=hidden;rotatable=0;points=[[0,0.5],[1,0.5]];portConstraint=eastwest;whiteSpace=wrap;html=1;" vertex="1" parent="x8CmGXhVg_EeQ_MlbedM-20">
          <mxGeometry y="34" width="186" height="26" as="geometry" />
        </mxCell>
        <mxCell id="x8CmGXhVg_EeQ_MlbedM-28" value="&lt;div&gt;+Проверка()&lt;/div&gt;" style="text;strokeColor=none;fillColor=none;align=left;verticalAlign=top;spacingLeft=4;spacingRight=4;overflow=hidden;rotatable=0;points=[[0,0.5],[1,0.5]];portConstraint=eastwest;whiteSpace=wrap;html=1;" vertex="1" parent="x8CmGXhVg_EeQ_MlbedM-20">
          <mxGeometry y="60" width="186" height="26" as="geometry" />
        </mxCell>
        <mxCell id="x8CmGXhVg_EeQ_MlbedM-27" value="+Нормализация()" style="text;strokeColor=none;fillColor=none;align=left;verticalAlign=top;spacingLeft=4;spacingRight=4;overflow=hidden;rotatable=0;points=[[0,0.5],[1,0.5]];portConstraint=eastwest;whiteSpace=wrap;html=1;" vertex="1" parent="x8CmGXhVg_EeQ_MlbedM-20">
          <mxGeometry y="86" width="186" height="26" as="geometry" />
        </mxCell>
        <mxCell id="x8CmGXhVg_EeQ_MlbedM-29" value="+Стандартизация()" style="text;strokeColor=none;fillColor=none;align=left;verticalAlign=top;spacingLeft=4;spacingRight=4;overflow=hidden;rotatable=0;points=[[0,0.5],[1,0.5]];portConstraint=eastwest;whiteSpace=wrap;html=1;" vertex="1" parent="x8CmGXhVg_EeQ_MlbedM-20">
          <mxGeometry y="112" width="186" height="26" as="geometry" />
        </mxCell>
        <mxCell id="x8CmGXhVg_EeQ_MlbedM-30" value="+Обучение модели()" style="text;strokeColor=none;fillColor=none;align=left;verticalAlign=top;spacingLeft=4;spacingRight=4;overflow=hidden;rotatable=0;points=[[0,0.5],[1,0.5]];portConstraint=eastwest;whiteSpace=wrap;html=1;" vertex="1" parent="x8CmGXhVg_EeQ_MlbedM-20">
          <mxGeometry y="138" width="186" height="26" as="geometry" />
        </mxCell>
        <mxCell id="x8CmGXhVg_EeQ_MlbedM-31" value="+Предсказание&amp;nbsp;&lt;span style=&quot;color: rgba(0, 0, 0, 0); font-family: monospace; font-size: 0px; text-wrap-mode: nowrap;&quot;&gt;%3CmxGraphModel%3E%3Croot%3E%3CmxCell%20id%3D%220%22%2F%3E%3CmxCell%20id%3D%221%22%20parent%3D%220%22%2F%3E%3CmxCell%20id%3D%222%22%20value%3D%22%2B%D0%9D%D0%BE%D1%80%D0%BC%D0%B0%D0%BB%D0%B8%D0%B7%D0%B0%D1%86%D0%B8%D1%8F()%22%20style%3D%22text%3BstrokeColor%3Dnone%3BfillColor%3Dnone%3Balign%3Dleft%3BverticalAlign%3Dtop%3BspacingLeft%3D4%3BspacingRight%3D4%3Boverflow%3Dhidden%3Brotatable%3D0%3Bpoints%3D%5B%5B0%2C0.5%5D%2C%5B1%2C0.5%5D%5D%3BportConstraint%3Deastwest%3BwhiteSpace%3Dwrap%3Bhtml%3D1%3B%22%20vertex%3D%221%22%20parent%3D%221%22%3E%3CmxGeometry%20x%3D%22334%22%20y%3D%22776%22%20width%3D%22160%22%20height%3D%2226%22%20as%3D%22geometry%22%2F%3E%3C%2FmxCell%3E%3C%2Froot%3E%3C%2FmxGraphModel%3E&lt;/span&gt;и оценка()" style="text;strokeColor=none;fillColor=none;align=left;verticalAlign=top;spacingLeft=4;spacingRight=4;overflow=hidden;rotatable=0;points=[[0,0.5],[1,0.5]];portConstraint=eastwest;whiteSpace=wrap;html=1;" vertex="1" parent="x8CmGXhVg_EeQ_MlbedM-20">
          <mxGeometry y="164" width="186" height="26" as="geometry" />
        </mxCell>
        <mxCell id="x8CmGXhVg_EeQ_MlbedM-32" value="+Визуализация результатов()&lt;div&gt;&lt;br&gt;&lt;/div&gt;" style="text;strokeColor=none;fillColor=none;align=left;verticalAlign=top;spacingLeft=4;spacingRight=4;overflow=hidden;rotatable=0;points=[[0,0.5],[1,0.5]];portConstraint=eastwest;whiteSpace=wrap;html=1;" vertex="1" parent="x8CmGXhVg_EeQ_MlbedM-20">
          <mxGeometry y="190" width="186" height="30" as="geometry" />
        </mxCell>
        <mxCell id="x8CmGXhVg_EeQ_MlbedM-34" value="" style="ellipse;html=1;shape=endState;fillColor=#000000;strokeColor=#ff0000;" vertex="1" parent="1">
          <mxGeometry x="412" y="960" width="30" height="30" as="geometry" />
        </mxCell>
      </root>
    </mxGraphModel>
  </diagram>
</mxfile>
